<?xml version="1.0" encoding="utf-8"?>
<!-- Generator: Adobe Illustrator 27.8.1, SVG Export Plug-In . SVG Version: 6.00 Build 0)  -->
<svg version="1.1" id="Layer_1" xmlns="http://www.w3.org/2000/svg" xmlns:xlink="http://www.w3.org/1999/xlink" x="0px" y="0px"
	 viewBox="0 0 425.1 109.4" style="enable-background:new 0 0 425.1 109.4;" xml:space="preserve">
<style type="text/css">
	.st0{fill-rule:evenodd;clip-rule:evenodd;fill:#002533;}
	.st1{fill:url(#SVGID_1_);}
	.st2{opacity:0.24;}
	.st3{opacity:0.29;enable-background:new    ;}
	.st4{fill:#FFFFFF;}
	.st5{fill:#002533;}
</style>
<path class="st0" d="M165,35.7h9.4v54.6h-10.6V54.8c-2.4,3.4-6.5,9.1-13.2,18.3l-0.5,0.7h-3.3l-0.5-0.7c-5.6-7.7-10.2-14-13.4-18.5
	v35.6h-10.5V35.7h9.5L148.5,59L165,35.7z M212.8,50.5l10.5-2.2v40.5h-10.5v-2.2c-3.4,2.4-7.3,3.7-11.6,3.7c-5.7,0-10.6-2.1-14.7-6.3
	c-4-4.3-6-9.4-6-15.3s2-11,6-15.2c4.1-4.2,9-6.3,14.7-6.3c4.4,0,8.3,1.2,11.6,3.6V50.5z M212.5,68.7c0-3.3-1.1-6.1-3.2-8.4
	c-2.1-2.3-4.6-3.4-7.6-3.4s-5.5,1.1-7.6,3.4c-2.2,2.4-3.2,5.1-3.2,8.4s1.1,6.1,3.2,8.5c2.1,2.3,4.6,3.4,7.6,3.4s5.5-1.1,7.6-3.4
	C211.5,74.9,212.5,72.1,212.5,68.7z M250,48c-4.1,0-7.8,1.6-10.5,4.2v-3.6h-10.2v41.6h10.3V73c0-2.2,0.1-5.4,0.6-8
	c0.5-2.5,3.7-7.2,7.9-7.2c1.4,0,3.4,0.3,5.3,1.8l1.6,1.2l5.2-9.3l-1.3-0.9C256.5,48.9,253.6,48,250,48z M304.3,48.8h-13.8
	l-13.8,13.5v-32h-10.3v60.1h10.4V74.6l15.6,15.7h13.9l-22.1-22.5L304.3,48.8z M322.8,49V34l-10.5,4.3v52h10.5V58h10.3l-2.2-9.1
	L322.8,49L322.8,49z M340,90.3h10.2v-46L340,48.5V90.3z M349.3,31.8c1,1.3,1.6,2.6,1.6,4.3s-0.6,3.1-1.7,4.3s-2.6,1.8-4.2,1.8
	s-3-0.6-4.2-1.8l-0.1-0.1c-1.1-1.2-1.6-2.6-1.6-4.2c0-1.7,0.6-3.2,1.6-4.3l0.1-0.1c1.2-1.2,2.6-1.8,4.2-1.8s3,0.6,4.2,1.8
	L349.3,31.8z M367.8,41.1c0.3-1.2,1.9-1.9,4.8-1.9c2.3,0,4.8,0.6,7.4,1.8l2.5,1.2V31.6l-1.1-0.4c-2.7-1.2-6-1.8-9.8-1.8
	c-6.9,0-11.4,2.5-13.3,7.4v0.1c-0.8,2.5-1.2,5.4-1.2,8.8v44.5h10.2v-32h10.1v-9.6h-10.1v-1.3C367.2,44.8,367.4,42.8,367.8,41.1z
	 M414,48.6l-0.4,1.1c-5.7,15-8.5,22.5-10.1,26.9c-1.6-4.2-4.5-11.4-11.3-27l-0.5-1h-11.4L398,90l-0.9,2.2c-0.8,2.2-2,4.5-3,5.9
	c-0.9,1.3-2.2,1.9-4.3,1.9c-2,0-3.9-0.4-5.7-1.2l-2.4-1.1v10.2l1.2,0.4c2.7,0.9,4.9,1.1,7.8,1.1c5,0,8.7-1.8,11.4-5.5
	c1.4-1.9,2.9-4.9,4.4-8.8L425,48.5L414,48.6L414,48.6z"/>
<linearGradient id="SVGID_1_" gradientUnits="userSpaceOnUse" x1="49.95" y1="2.6" x2="49.95" y2="90.5" gradientTransform="matrix(1 0 0 -1 0 112)">
	<stop  offset="0" style="stop-color:#0043FF"/>
	<stop  offset="1" style="stop-color:#218DFF"/>
</linearGradient>
<path class="st1" d="M72.6,109.4H27.2c-8,0-14.9-5.7-16.4-13.6L0.3,41.2c-1.9-10.2,6-19.7,16.4-19.7h66.5c10.4,0,18.3,9.5,16.4,19.7
	L89,95.8C87.6,103.7,80.7,109.4,72.6,109.4z"/>
<g class="st2">
	<path d="M49.5,84.9c3-1.3,4.4-4.8,3.1-7.8l-7.4-16.6c-0.9-2.2-3.1-3.6-5.5-3.6s-4.5,1.4-5.5,3.6L21.1,91.7c-1.3,3,0.1,6.5,3.1,7.8
		c0.7,0.3,1.5,0.5,2.3,0.5c2.4,0,4.5-1.4,5.5-3.6l7.9-18.5l1.9,3.9C43,84.8,46.5,86.2,49.5,84.9z"/>
	<path d="M58.5,91.7c0.6,1.5,0.6,3.1,0,4.5c-0.6,1.5-1.7,2.6-3.2,3.2c-0.7,0.3-1.5,0.5-2.3,0.5c-2.4,0-4.5-1.4-5.5-3.6L47,95
		c-0.6-1.5-0.6-3.1,0-4.5c0.6-1.5,1.7-2.6,3.2-3.2c3-1.3,6.5,0.1,7.8,3.1L58.5,91.7z"/>
	<path d="M82.1,91.7L68.8,60.5c-0.6-1.5-1.8-2.6-3.2-3.2c-1.5-0.6-3.1-0.6-4.5,0c-3,1.3-4.4,4.8-3.1,7.8l13.3,31.3
		c0.9,2.2,3.1,3.6,5.5,3.6c0.8,0,1.6-0.2,2.3-0.5C81.9,98.2,83.3,94.8,82.1,91.7z"/>
</g>
<g>
	<g class="st3">
		<path class="st4" d="M24.6,34.3L24.6,34.3c-2.8,0-5-2.3-5-5l0,0c0-2.8,2.3-5,5-5l0,0c2.8,0,5,2.3,5,5l0,0
			C29.6,32,27.4,34.3,24.6,34.3z"/>
	</g>
	<g class="st3">
		<path class="st4" d="M75.2,34.3L75.2,34.3c-2.8,0-5-2.3-5-5l0,0c0-2.8,2.3-5,5-5l0,0c2.8,0,5,2.3,5,5l0,0
			C80.2,32,78,34.3,75.2,34.3z"/>
	</g>
	<g>
		<path class="st5" d="M75.2,32.3c-2.2,0-4-1.8-4-4C71.2,17.1,62.1,8,50.9,8h-2c-11.2,0-20.3,9.1-20.3,20.3c0,2.2-1.8,4-4,4
			s-4-1.8-4-4C20.6,12.7,33.3,0,48.9,0h2c15.6,0,28.3,12.7,28.3,28.3C79.2,30.5,77.4,32.3,75.2,32.3z"/>
	</g>
</g>
<g>
	<path class="st4" d="M47.8,84.9c3-1.3,4.4-4.8,3.1-7.8l-7.4-16.6c-0.9-2.2-3.1-3.6-5.5-3.6s-4.5,1.4-5.5,3.6L19.4,91.7
		c-1.3,3,0.1,6.5,3.1,7.8c0.7,0.3,1.5,0.5,2.3,0.5c2.4,0,4.5-1.4,5.5-3.6l7.9-18.5l1.9,3.9C41.3,84.8,44.8,86.2,47.8,84.9z"/>
	<path class="st4" d="M56.9,91.7c0.6,1.5,0.6,3.1,0,4.5c-0.6,1.5-1.7,2.6-3.2,3.2c-0.7,0.3-1.5,0.5-2.3,0.5c-2.4,0-4.5-1.4-5.5-3.6
		L45.4,95c-0.6-1.5-0.6-3.1,0-4.5c0.6-1.5,1.7-2.6,3.2-3.2c3-1.3,6.5,0.1,7.8,3.1L56.9,91.7z"/>
	<path class="st4" d="M80.4,91.7L67.1,60.5c-0.6-1.5-1.8-2.6-3.2-3.2c-1.5-0.6-3.1-0.6-4.5,0c-3,1.3-4.4,4.8-3.1,7.8l13.3,31.3
		c0.9,2.2,3.1,3.6,5.5,3.6c0.8,0,1.6-0.2,2.3-0.5C80.3,98.2,81.7,94.8,80.4,91.7z"/>
</g>
</svg>
